%TF.GenerationSoftware,KiCad,Pcbnew,8.0.5*%
%TF.CreationDate,2025-03-27T12:09:55+00:00*%
%TF.ProjectId,pcb_antenna,7063625f-616e-4746-956e-6e612e6b6963,rev?*%
%TF.SameCoordinates,Original*%
%TF.FileFunction,Copper,L1,Top*%
%TF.FilePolarity,Positive*%
%FSLAX46Y46*%
G04 Gerber Fmt 4.6, Leading zero omitted, Abs format (unit mm)*
G04 Created by KiCad (PCBNEW 8.0.5) date 2025-03-27 12:09:55*
%MOMM*%
%LPD*%
G01*
G04 APERTURE LIST*
G04 Aperture macros list*
%AMRoundRect*
0 Rectangle with rounded corners*
0 $1 Rounding radius*
0 $2 $3 $4 $5 $6 $7 $8 $9 X,Y pos of 4 corners*
0 Add a 4 corners polygon primitive as box body*
4,1,4,$2,$3,$4,$5,$6,$7,$8,$9,$2,$3,0*
0 Add four circle primitives for the rounded corners*
1,1,$1+$1,$2,$3*
1,1,$1+$1,$4,$5*
1,1,$1+$1,$6,$7*
1,1,$1+$1,$8,$9*
0 Add four rect primitives between the rounded corners*
20,1,$1+$1,$2,$3,$4,$5,0*
20,1,$1+$1,$4,$5,$6,$7,0*
20,1,$1+$1,$6,$7,$8,$9,0*
20,1,$1+$1,$8,$9,$2,$3,0*%
G04 Aperture macros list end*
%TA.AperFunction,EtchedComponent*%
%ADD10C,0.460000*%
%TD*%
%TA.AperFunction,SMDPad,CuDef*%
%ADD11RoundRect,0.218750X0.256250X-0.218750X0.256250X0.218750X-0.256250X0.218750X-0.256250X-0.218750X0*%
%TD*%
%TA.AperFunction,SMDPad,CuDef*%
%ADD12RoundRect,0.218750X-0.218750X-0.256250X0.218750X-0.256250X0.218750X0.256250X-0.218750X0.256250X0*%
%TD*%
%TA.AperFunction,SMDPad,CuDef*%
%ADD13RoundRect,0.250000X-0.640000X1.595000X-0.640000X-1.595000X0.640000X-1.595000X0.640000X1.595000X0*%
%TD*%
%TA.AperFunction,ComponentPad*%
%ADD14C,0.970000*%
%TD*%
%TA.AperFunction,SMDPad,CuDef*%
%ADD15RoundRect,0.250000X-1.082500X1.595000X-1.082500X-1.595000X1.082500X-1.595000X1.082500X1.595000X0*%
%TD*%
%TA.AperFunction,SMDPad,CuDef*%
%ADD16RoundRect,0.225000X-0.225000X-0.250000X0.225000X-0.250000X0.225000X0.250000X-0.225000X0.250000X0*%
%TD*%
%TA.AperFunction,ViaPad*%
%ADD17C,0.600000*%
%TD*%
%TA.AperFunction,Conductor*%
%ADD18C,1.000000*%
%TD*%
%TA.AperFunction,Conductor*%
%ADD19C,0.400000*%
%TD*%
G04 APERTURE END LIST*
D10*
%TO.C,J1*%
X103492500Y-161750000D02*
X103492500Y-159015000D01*
X96507500Y-161750000D02*
X96507500Y-159015000D01*
%TD*%
D11*
%TO.P,L3,1,1*%
%TO.N,OUT*%
X85169635Y-105047454D03*
%TO.P,L3,2,2*%
%TO.N,Net-(C1-Pad1)*%
X85169635Y-103472454D03*
%TD*%
%TO.P,L2,1,1*%
%TO.N,Net-(C1-Pad1)*%
X85169635Y-101622454D03*
%TO.P,L2,2,2*%
%TO.N,Net-(AE1-A)*%
X85169635Y-100047454D03*
%TD*%
D12*
%TO.P,L1,1,1*%
%TO.N,Net-(AE1-A)*%
X86942249Y-100085024D03*
%TO.P,L1,2,2*%
%TO.N,GND*%
X88517249Y-100085024D03*
%TD*%
D13*
%TO.P,J1,1,In*%
%TO.N,OUT*%
X100000000Y-161750000D03*
D14*
%TO.P,J1,2,Ext*%
%TO.N,GND*%
X103492500Y-159015000D03*
X96507500Y-159015000D03*
D15*
X103492500Y-161750000D03*
X96507500Y-161750000D03*
%TD*%
D16*
%TO.P,C2,1*%
%TO.N,OUT*%
X86950000Y-105000000D03*
%TO.P,C2,2*%
%TO.N,GND*%
X88500000Y-105000000D03*
%TD*%
%TO.P,C1,1*%
%TO.N,Net-(C1-Pad1)*%
X86946125Y-102555941D03*
%TO.P,C1,2*%
%TO.N,GND*%
X88496125Y-102555941D03*
%TD*%
D17*
%TO.N,GND*%
X89500000Y-105000000D03*
X89500000Y-102500000D03*
X89500000Y-100000000D03*
%TD*%
D18*
%TO.N,OUT*%
X100000000Y-161750000D02*
X100000000Y-157500000D01*
X85169635Y-106330365D02*
X85000000Y-106500000D01*
X85169635Y-105047454D02*
X85169635Y-106330365D01*
D19*
%TO.N,Net-(AE1-A)*%
X85169635Y-100047454D02*
X85169635Y-98569635D01*
X85169635Y-98569635D02*
X85100000Y-98500000D01*
X121000000Y-95000000D02*
X121000000Y-69500000D01*
X119000000Y-92000000D02*
X119000000Y-71000000D01*
X121000000Y-69500000D02*
X79000000Y-69500000D01*
X79000000Y-69500000D02*
X79000000Y-92000000D01*
X76000000Y-95000000D02*
X121000000Y-95000000D01*
X79000000Y-92000000D02*
X119000000Y-92000000D01*
X81000000Y-71000000D02*
X81000000Y-90000000D01*
X117000000Y-73000000D02*
X83000000Y-73000000D01*
X119000000Y-71000000D02*
X81000000Y-71000000D01*
X81000000Y-90000000D02*
X117000000Y-90000000D01*
X117000000Y-90000000D02*
X117000000Y-73000000D01*
X75000000Y-97000000D02*
X123500000Y-97000000D01*
X125000000Y-98500000D02*
X125000000Y-65500000D01*
X125000000Y-65500000D02*
X75000000Y-65500000D01*
X85100000Y-98500000D02*
X124900000Y-98500000D01*
X75000000Y-65500000D02*
X75000000Y-97000000D01*
X83000000Y-88000000D02*
X105600000Y-88000000D01*
X123500000Y-97000000D02*
X123500000Y-67000000D01*
X123500000Y-67000000D02*
X76000000Y-67000000D01*
X76000000Y-67150000D02*
X76000000Y-94850000D01*
X83000000Y-73000000D02*
X83000000Y-88000000D01*
%TO.N,GND*%
X88500000Y-105000000D02*
X89500000Y-105000000D01*
X89444059Y-102555941D02*
X89500000Y-102500000D01*
X88496125Y-102555941D02*
X89444059Y-102555941D01*
X89414976Y-100085024D02*
X89500000Y-100000000D01*
X88517249Y-100085024D02*
X89414976Y-100085024D01*
D18*
%TO.N,OUT*%
X86950000Y-105000000D02*
X85217089Y-105000000D01*
X85217089Y-105000000D02*
X85169635Y-105047454D01*
%TO.N,Net-(C1-Pad1)*%
X85169635Y-101622454D02*
X85169635Y-103000000D01*
X85613694Y-102555941D02*
X85169635Y-103000000D01*
X85169635Y-103000000D02*
X85169635Y-103472454D01*
X86946125Y-102555941D02*
X85613694Y-102555941D01*
%TO.N,Net-(AE1-A)*%
X86942249Y-100085024D02*
X85207205Y-100085024D01*
X85207205Y-100085024D02*
X85169635Y-100047454D01*
%TD*%
%TA.AperFunction,Conductor*%
%TO.N,OUT*%
G36*
X86443039Y-106019685D02*
G01*
X86488794Y-106072489D01*
X86500000Y-106124000D01*
X86500000Y-122000000D01*
X98448638Y-122000000D01*
X98515677Y-122019685D01*
X98536319Y-122036319D01*
X101463681Y-124963681D01*
X101497166Y-125025004D01*
X101500000Y-125051362D01*
X101500000Y-158876000D01*
X101480315Y-158943039D01*
X101427511Y-158988794D01*
X101376000Y-159000000D01*
X98624000Y-159000000D01*
X98556961Y-158980315D01*
X98511206Y-158927511D01*
X98500000Y-158876000D01*
X98500000Y-125000000D01*
X86551362Y-125000000D01*
X86484323Y-124980315D01*
X86463681Y-124963681D01*
X83536319Y-122036319D01*
X83502834Y-121974996D01*
X83500000Y-121948638D01*
X83500000Y-106124000D01*
X83519685Y-106056961D01*
X83572489Y-106011206D01*
X83624000Y-106000000D01*
X86376000Y-106000000D01*
X86443039Y-106019685D01*
G37*
%TD.AperFunction*%
%TD*%
M02*
