%TF.GenerationSoftware,KiCad,Pcbnew,8.0.5*%
%TF.CreationDate,2025-03-27T12:09:55+00:00*%
%TF.ProjectId,pcb_antenna,7063625f-616e-4746-956e-6e612e6b6963,rev?*%
%TF.SameCoordinates,Original*%
%TF.FileFunction,Copper,L2,Bot*%
%TF.FilePolarity,Positive*%
%FSLAX46Y46*%
G04 Gerber Fmt 4.6, Leading zero omitted, Abs format (unit mm)*
G04 Created by KiCad (PCBNEW 8.0.5) date 2025-03-27 12:09:55*
%MOMM*%
%LPD*%
G01*
G04 APERTURE LIST*
G04 Aperture macros list*
%AMRoundRect*
0 Rectangle with rounded corners*
0 $1 Rounding radius*
0 $2 $3 $4 $5 $6 $7 $8 $9 X,Y pos of 4 corners*
0 Add a 4 corners polygon primitive as box body*
4,1,4,$2,$3,$4,$5,$6,$7,$8,$9,$2,$3,0*
0 Add four circle primitives for the rounded corners*
1,1,$1+$1,$2,$3*
1,1,$1+$1,$4,$5*
1,1,$1+$1,$6,$7*
1,1,$1+$1,$8,$9*
0 Add four rect primitives between the rounded corners*
20,1,$1+$1,$2,$3,$4,$5,0*
20,1,$1+$1,$4,$5,$6,$7,0*
20,1,$1+$1,$6,$7,$8,$9,0*
20,1,$1+$1,$8,$9,$2,$3,0*%
G04 Aperture macros list end*
%TA.AperFunction,EtchedComponent*%
%ADD10C,0.460000*%
%TD*%
%TA.AperFunction,ComponentPad*%
%ADD11C,0.970000*%
%TD*%
%TA.AperFunction,SMDPad,CuDef*%
%ADD12RoundRect,0.250000X-1.082500X1.595000X-1.082500X-1.595000X1.082500X-1.595000X1.082500X1.595000X0*%
%TD*%
%TA.AperFunction,ViaPad*%
%ADD13C,0.600000*%
%TD*%
G04 APERTURE END LIST*
D10*
%TO.C,J1*%
X103492500Y-161750000D02*
X103492500Y-159015000D01*
X96507500Y-161750000D02*
X96507500Y-159015000D01*
%TD*%
D11*
%TO.P,J1,2,Ext*%
%TO.N,GND*%
X103492500Y-159015000D03*
X96507500Y-159015000D03*
D12*
X103492500Y-161750000D03*
X96507500Y-161750000D03*
%TD*%
D13*
%TO.N,GND*%
X89500000Y-105000000D03*
X89500000Y-102500000D03*
X89500000Y-100000000D03*
%TD*%
%TA.AperFunction,Conductor*%
%TO.N,GND*%
G36*
X124877241Y-97998772D02*
G01*
X124944079Y-98019126D01*
X124989304Y-98072385D01*
X125000000Y-98122766D01*
X125000000Y-164375500D01*
X124980315Y-164442539D01*
X124927511Y-164488294D01*
X124876000Y-164499500D01*
X75124000Y-164499500D01*
X75056961Y-164479815D01*
X75011206Y-164427011D01*
X75000000Y-164375500D01*
X75000000Y-160105013D01*
X94675000Y-160105013D01*
X94675000Y-161500000D01*
X95653000Y-161500000D01*
X95720039Y-161519685D01*
X95765794Y-161572489D01*
X95777000Y-161624000D01*
X95777000Y-161821946D01*
X95782940Y-161851810D01*
X95776712Y-161921401D01*
X95733848Y-161976578D01*
X95667958Y-161999822D01*
X95661322Y-162000000D01*
X94675001Y-162000000D01*
X94675001Y-163394986D01*
X94685494Y-163497697D01*
X94740641Y-163664119D01*
X94740643Y-163664124D01*
X94832684Y-163813345D01*
X94956654Y-163937315D01*
X95105875Y-164029356D01*
X95105880Y-164029358D01*
X95272302Y-164084505D01*
X95272309Y-164084506D01*
X95375019Y-164094999D01*
X96257499Y-164094999D01*
X96257500Y-164094998D01*
X96257500Y-162596177D01*
X96277185Y-162529138D01*
X96329989Y-162483383D01*
X96399147Y-162473439D01*
X96405657Y-162474553D01*
X96435552Y-162480500D01*
X96435553Y-162480500D01*
X96579447Y-162480500D01*
X96579448Y-162480500D01*
X96609309Y-162474560D01*
X96678898Y-162480786D01*
X96734076Y-162523648D01*
X96757322Y-162589537D01*
X96757500Y-162596177D01*
X96757500Y-164094999D01*
X97639972Y-164094999D01*
X97639986Y-164094998D01*
X97742697Y-164084505D01*
X97909119Y-164029358D01*
X97909124Y-164029356D01*
X98058345Y-163937315D01*
X98182315Y-163813345D01*
X98274356Y-163664124D01*
X98274358Y-163664119D01*
X98329505Y-163497697D01*
X98329506Y-163497690D01*
X98339999Y-163394986D01*
X98340000Y-163394973D01*
X98340000Y-162000000D01*
X97353678Y-162000000D01*
X97286639Y-161980315D01*
X97240884Y-161927511D01*
X97230940Y-161858353D01*
X97232060Y-161851810D01*
X97238000Y-161821946D01*
X97238000Y-161624000D01*
X97257685Y-161556961D01*
X97310489Y-161511206D01*
X97362000Y-161500000D01*
X98339999Y-161500000D01*
X98339999Y-160105028D01*
X98339998Y-160105013D01*
X101660000Y-160105013D01*
X101660000Y-161500000D01*
X102638000Y-161500000D01*
X102705039Y-161519685D01*
X102750794Y-161572489D01*
X102762000Y-161624000D01*
X102762000Y-161821946D01*
X102767940Y-161851810D01*
X102761712Y-161921401D01*
X102718848Y-161976578D01*
X102652958Y-161999822D01*
X102646322Y-162000000D01*
X101660001Y-162000000D01*
X101660001Y-163394986D01*
X101670494Y-163497697D01*
X101725641Y-163664119D01*
X101725643Y-163664124D01*
X101817684Y-163813345D01*
X101941654Y-163937315D01*
X102090875Y-164029356D01*
X102090880Y-164029358D01*
X102257302Y-164084505D01*
X102257309Y-164084506D01*
X102360019Y-164094999D01*
X103242499Y-164094999D01*
X103242500Y-164094998D01*
X103242500Y-162596177D01*
X103262185Y-162529138D01*
X103314989Y-162483383D01*
X103384147Y-162473439D01*
X103390657Y-162474553D01*
X103420552Y-162480500D01*
X103420553Y-162480500D01*
X103564447Y-162480500D01*
X103564448Y-162480500D01*
X103594309Y-162474560D01*
X103663898Y-162480786D01*
X103719076Y-162523648D01*
X103742322Y-162589537D01*
X103742500Y-162596177D01*
X103742500Y-164094999D01*
X104624972Y-164094999D01*
X104624986Y-164094998D01*
X104727697Y-164084505D01*
X104894119Y-164029358D01*
X104894124Y-164029356D01*
X105043345Y-163937315D01*
X105167315Y-163813345D01*
X105259356Y-163664124D01*
X105259358Y-163664119D01*
X105314505Y-163497697D01*
X105314506Y-163497690D01*
X105324999Y-163394986D01*
X105325000Y-163394973D01*
X105325000Y-162000000D01*
X104338678Y-162000000D01*
X104271639Y-161980315D01*
X104225884Y-161927511D01*
X104215940Y-161858353D01*
X104217060Y-161851810D01*
X104223000Y-161821946D01*
X104223000Y-161624000D01*
X104242685Y-161556961D01*
X104295489Y-161511206D01*
X104347000Y-161500000D01*
X105324999Y-161500000D01*
X105324999Y-160105028D01*
X105324998Y-160105013D01*
X105314505Y-160002302D01*
X105259358Y-159835880D01*
X105259356Y-159835875D01*
X105167315Y-159686654D01*
X105043345Y-159562684D01*
X104894124Y-159470643D01*
X104894119Y-159470641D01*
X104727697Y-159415494D01*
X104727690Y-159415493D01*
X104624986Y-159405000D01*
X104570712Y-159405000D01*
X104503673Y-159385315D01*
X104457918Y-159332511D01*
X104447974Y-159263353D01*
X104452051Y-159245005D01*
X104463248Y-159208092D01*
X104482265Y-159015000D01*
X104463248Y-158821907D01*
X104406923Y-158636230D01*
X104343492Y-158517560D01*
X104267614Y-158593438D01*
X104206291Y-158626922D01*
X104136599Y-158621938D01*
X104080666Y-158580066D01*
X104076830Y-158574645D01*
X104059918Y-158549334D01*
X104059914Y-158549329D01*
X103958170Y-158447585D01*
X103958166Y-158447582D01*
X103932851Y-158430667D01*
X103888046Y-158377055D01*
X103879339Y-158307730D01*
X103909493Y-158244702D01*
X103914061Y-158239883D01*
X103989938Y-158164006D01*
X103871269Y-158100576D01*
X103685592Y-158044251D01*
X103492500Y-158025234D01*
X103299407Y-158044251D01*
X103113730Y-158100576D01*
X102995060Y-158164007D01*
X103070937Y-158239884D01*
X103104422Y-158301207D01*
X103099438Y-158370899D01*
X103057566Y-158426832D01*
X103052150Y-158430665D01*
X103026834Y-158447581D01*
X103026829Y-158447585D01*
X102925085Y-158549329D01*
X102925081Y-158549334D01*
X102908165Y-158574650D01*
X102854551Y-158619453D01*
X102785226Y-158628159D01*
X102722200Y-158598002D01*
X102717384Y-158593437D01*
X102641507Y-158517560D01*
X102578076Y-158636230D01*
X102521751Y-158821907D01*
X102502734Y-159015000D01*
X102521751Y-159208092D01*
X102532949Y-159245005D01*
X102533572Y-159314872D01*
X102496324Y-159373985D01*
X102433030Y-159403575D01*
X102414290Y-159405000D01*
X102360029Y-159405000D01*
X102360012Y-159405001D01*
X102257302Y-159415494D01*
X102090880Y-159470641D01*
X102090875Y-159470643D01*
X101941654Y-159562684D01*
X101817684Y-159686654D01*
X101725643Y-159835875D01*
X101725641Y-159835880D01*
X101670494Y-160002302D01*
X101670493Y-160002309D01*
X101660000Y-160105013D01*
X98339998Y-160105013D01*
X98329505Y-160002302D01*
X98274358Y-159835880D01*
X98274356Y-159835875D01*
X98182315Y-159686654D01*
X98058345Y-159562684D01*
X97909124Y-159470643D01*
X97909119Y-159470641D01*
X97742697Y-159415494D01*
X97742690Y-159415493D01*
X97639986Y-159405000D01*
X97585712Y-159405000D01*
X97518673Y-159385315D01*
X97472918Y-159332511D01*
X97462974Y-159263353D01*
X97467051Y-159245005D01*
X97478248Y-159208092D01*
X97497265Y-159015000D01*
X97478248Y-158821907D01*
X97421923Y-158636230D01*
X97358492Y-158517560D01*
X97282614Y-158593438D01*
X97221291Y-158626922D01*
X97151599Y-158621938D01*
X97095666Y-158580066D01*
X97091830Y-158574645D01*
X97074918Y-158549334D01*
X97074914Y-158549329D01*
X96973170Y-158447585D01*
X96973166Y-158447582D01*
X96947851Y-158430667D01*
X96903046Y-158377055D01*
X96894339Y-158307730D01*
X96924493Y-158244702D01*
X96929061Y-158239883D01*
X97004938Y-158164006D01*
X96886269Y-158100576D01*
X96700592Y-158044251D01*
X96507500Y-158025234D01*
X96314407Y-158044251D01*
X96128730Y-158100576D01*
X96010060Y-158164007D01*
X96085937Y-158239884D01*
X96119422Y-158301207D01*
X96114438Y-158370899D01*
X96072566Y-158426832D01*
X96067150Y-158430665D01*
X96041834Y-158447581D01*
X96041829Y-158447585D01*
X95940085Y-158549329D01*
X95940081Y-158549334D01*
X95923165Y-158574650D01*
X95869551Y-158619453D01*
X95800226Y-158628159D01*
X95737200Y-158598002D01*
X95732384Y-158593437D01*
X95656507Y-158517560D01*
X95593076Y-158636230D01*
X95536751Y-158821907D01*
X95517734Y-159015000D01*
X95536751Y-159208092D01*
X95547949Y-159245005D01*
X95548572Y-159314872D01*
X95511324Y-159373985D01*
X95448030Y-159403575D01*
X95429290Y-159405000D01*
X95375029Y-159405000D01*
X95375012Y-159405001D01*
X95272302Y-159415494D01*
X95105880Y-159470641D01*
X95105875Y-159470643D01*
X94956654Y-159562684D01*
X94832684Y-159686654D01*
X94740643Y-159835875D01*
X94740641Y-159835880D01*
X94685494Y-160002302D01*
X94685493Y-160002309D01*
X94675000Y-160105013D01*
X75000000Y-160105013D01*
X75000000Y-97625246D01*
X75019685Y-97558207D01*
X75072489Y-97512452D01*
X75125238Y-97501252D01*
X124877241Y-97998772D01*
G37*
%TD.AperFunction*%
%TD*%
M02*
